PathFileType	4	(X/Y/Z)	30_1_16_p1_0-306_filt_butterworth.trc
DataRate	CameraRate	NumFrames	NumMarkers	Units	OrigDataRate	OrigDataStartFrame	OrigNumFrames
60.0	60.0	7	27	m	60.0	267	306
Frame#	Time	RHip			RKnee			RAnkle			RBigToe			RSmallToe			RHeel			LHip			LKnee			LAnkle			LBigToe			LSmallToe			LHeel			Neck			Head			Nose			RShoulder			RElbow			RWrist			RThumb			RIndex			RPinky			LShoulder			LElbow			LWrist			LThumb			LIndex			LPinky			
		X1	Y1	Z1	X2	Y2	Z2	X3	Y3	Z3	X4	Y4	Z4	X5	Y5	Z5	X6	Y6	Z6	X7	Y7	Z7	X8	Y8	Z8	X9	Y9	Z9	X10	Y10	Z10	X11	Y11	Z11	X12	Y12	Z12	X13	Y13	Z13	X14	Y14	Z14	X15	Y15	Z15	X16	Y16	Z16	X17	Y17	Z17	X18	Y18	Z18	X19	Y19	Z19	X20	Y20	Z20	X21	Y21	Z21	X22	Y22	Z22	X23	Y23	Z23	X24	Y24	Z24	X25	Y25	Z25	X26	Y26	Z26	X27	Y27	Z27	
267	4.45	0.23825304475572243	0.4281742826922186	0.8457222143674714	0.25257967006036847	0.46697970364319885	1.3284887584641751	0.24999405808720634	0.5395142326461738	1.8200893446779578	0.25846027941396177	0.3561155820561156	1.8191863204790986	0.3078264851779302	0.38395739839251714	1.810972321127014	0.23765088421789765	0.5995367871010798	1.8843806406696844	0.02368561658480751	0.4536563357012997	0.857932481124883	0.04443516180781011	0.48030204946964056	1.339991409138458	0.0517390826406212	0.5167625253283297	1.8017668314853148	0.09222729887480104	0.3240974365352953	1.7855871034349042	0.041363197637221044	0.35895791142295125	1.7974006628661892	0.04081265876034955	0.6054961846936396	1.9059099306212568	0.11087106823647502	0.49586103212765925	0.2288419152196684	0.08443962195113995	0.4691208747356634	-0.007455636514777755	0.09989856580637298	0.41282746916775437	0.11121486692069016	0.2916849779809762	0.4587847122032992	0.3324615693299201	0.30965899051114737	0.25718490049158826	0.49242687871545177	0.17327021505184062	0.06388505520810299	0.4985044491124807	0.10408950790166821	0.014235600769845059	0.5194137941100103	0.10283540700565208	-0.013826457856301225	0.5318118545517305	0.10762581113142419	-0.03553869973250963	0.5424592533149217	-0.05871712370214371	0.5011811143569597	0.34345482882912226	-0.07936236402262922	0.25878573335438987	0.48726150047528316	0.05129098183955387	0.06584225077390918	0.5195644316214251	0.12204348141264856	0.012290866163274381	0.5240656439574272	0.13456629387092392	-0.009168436832456932	0.5268673050170851	0.09620362675667701	-0.015302296020572207	0.5784808485572873
268	4.466666666666667	0.23838710245502154	0.4282537959380239	0.845315763032052	0.2525531347541418	0.46732299076904693	1.3285586359577324	0.2501506355568242	0.5390744840522665	1.8213653539772343	0.25953129561306515	0.3554493024905713	1.819361382766497	0.30918140480445105	0.38396331558013863	1.811094218730814	0.23788695687044636	0.5990811400982801	1.8866995372924582	0.023543241566054314	0.45369534453367316	0.8592101356721706	0.044426882586405876	0.4804292807809406	1.3407038919967633	0.04998068971862243	0.5221409102794698	1.8046634391218135	0.09231710789412746	0.3239011378469273	1.7867750134261335	0.04070485096879179	0.3607686996563425	1.7986114401876905	0.03995872574508205	0.6075069587027997	1.9073551273075302	0.11023469945343253	0.4990132081983103	0.22918695407146827	0.08320220548113592	0.4732360987344272	-0.006969214244160869	0.09990365188623995	0.412848321377789	0.11118065671916876	0.2916989024192302	0.45881454754890766	0.3324581137443417	0.3089987733415747	0.2571259452423748	0.49204674369358825	0.17332627793136476	0.06409373837812748	0.49789277611610716	0.10663282723494844	0.013065745270420743	0.5118924011630488	0.10453369143992827	-0.015873974096005595	0.5291000758359561	0.10640672392566641	-0.023570542396065545	0.5421342754188015	-0.05867172805055344	0.5011890184525009	0.3434859358130005	-0.07976931319000989	0.2584492134258661	0.48539418259548495	0.0500079420462969	0.05840632639525397	0.5136769294111715	0.12361370686382082	0.01206813527872739	0.5237161334973218	0.1354915766883955	-0.007714422755559915	0.5263623982043499	0.09541289319995115	-0.023854853293457514	0.5764215052829342
269	4.483333333333333	0.2382945588636618	0.4287534201681588	0.8454450019284439	0.25249304410802603	0.46728452380188606	1.3286852468508958	0.25066784533594794	0.5403229286134273	1.8227691445778489	0.2597268429776907	0.3554013863127668	1.8189767041814429	0.31007924043672963	0.38401799468002173	1.8112268244802974	0.23850730218792307	0.600295415866845	1.888263457633547	0.02339076937086383	0.45365038509261946	0.8600283275982067	0.044766958030699196	0.481836458145851	1.342321853336002	0.04828434412351244	0.5279787267886258	1.8089813386624867	0.09232486325807268	0.3241664976762717	1.7874310410395617	0.039571235550044805	0.3610708427704447	1.7987741537167887	0.03879190119095777	0.6119506887515944	1.9096410511256012	0.10933827496047928	0.5033615671271137	0.22966237709010864	0.0822908001999998	0.4764974541035394	-0.006074913889756383	0.09990907388881862	0.4128805165507613	0.11116655950805594	0.29170839794485615	0.4588519276450077	0.3324664539361168	0.308829647628951	0.25717390035090154	0.49173471591553664	0.17333551250274154	0.06416112100389916	0.4977001638277623	0.1088241662717985	0.0093325444118083	0.5043834064562613	0.10647179936012763	-0.017271638485771776	0.526769590564828	0.10450769800829388	-0.017829566002496564	0.5408554360731126	-0.058632641946377614	0.5012086182750394	0.34353362778360164	-0.07980298437490285	0.25847532892311165	0.4848814371662042	0.0493515709915939	0.05366614063301751	0.510589876761979	0.1241480469828362	0.011881816842275425	0.5240638696069488	0.13527993350170778	-0.007257323375424124	0.5264026565463891	0.09778761786283952	-0.0309775323288809	0.5748092236436935
270	4.5	0.23828065249863734	0.4290754913701646	0.8452237641411733	0.25240853382522815	0.46686675786320747	1.328811101315892	0.2517863526281782	0.5437954027754518	1.825020292880474	0.2595346464555165	0.3558261240794167	1.8180748849886692	0.3108142469430838	0.3842327918758844	1.8113186719510228	0.23980080208861543	0.6036283177128383	1.8896245308041189	0.02332011521319318	0.4536239477699985	0.8602581881770208	0.04564478344549877	0.485083556112166	1.344329864724417	0.0468785484520523	0.5341944643038347	1.815318300999437	0.09258297882209625	0.32563595840828724	1.78839636356578	0.03888960579647965	0.361072936186407	1.798758406220631	0.03744818404788269	0.6181639725342948	1.9130826031367185	0.10850082349828657	0.5065112405595397	0.23001613382279926	0.08197029604394965	0.4779860011102286	-0.005002931205084875	0.09991117862224996	0.4129270885140484	0.11115699470335151	0.2917126783734364	0.45888877759600055	0.3324840101600247	0.3088250737784422	0.2573287902063063	0.4909762085312753	0.17332175271309141	0.06417267705740258	0.4976956380078763	0.11060159796254183	0.006323675276268661	0.5010556793628734	0.10813489279169744	-0.017468434103321336	0.5252867401758378	0.10282884144354845	-0.017427741921611454	0.5394734014722092	-0.058617665011169065	0.5012344893529506	0.3435758564451752	-0.07931310991989128	0.25866608421767323	0.485081623302547	0.0491970541625887	0.0513954774249994	0.509417649232319	0.12488248942663735	0.01189043054381365	0.5247146954299452	0.13459213181292645	-0.007443209358443876	0.5274731437137088	0.10139026886528968	-0.03442916908181767	0.5740766156151137
271	4.516666666666667	0.23826878780460217	0.42915401671791165	0.8439640166755038	0.2524457989431166	0.466704420404722	1.3288581511387438	0.25323345182692253	0.5481803769688175	1.8277480701671491	0.2593376934871129	0.35630130984718716	1.817256152387842	0.3114255413774541	0.38447521728411677	1.8113488268068738	0.2414604707244389	0.6078211158291043	1.8912756580206944	0.02333425300574322	0.45367408749761706	0.8597492868594325	0.04680841215021045	0.48919402535687484	1.3457802123000364	0.04568345604410762	0.540425126908059	1.822156021183033	0.09336252730364128	0.3289280566258069	1.7904622245035742	0.03825541297668048	0.36226285952124454	1.7995857412929037	0.036575020597906585	0.6229814138712821	1.916406494122735	0.10783520381143492	0.5079239767378884	0.23017413098903866	0.08201391399455607	0.478239433828658	-0.004215362027336143	0.09990491112847621	0.41297008565261284	0.11114501982946436	0.2917126436387572	0.45891956472496803	0.33250427677149663	0.30880264782983524	0.25750826765112667	0.48989551662780606	0.17330923380216254	0.0641753599331609	0.4977184919720034	0.11271819893926421	0.006902913733839746	0.501707003508752	0.10923072362380429	-0.01700004743800988	0.5245332089306419	0.10182177599757386	-0.01946717342625684	0.5387264372059214	-0.05862630378884287	0.5012573832238099	0.34359540525450405	-0.07822771469486395	0.2590257114279027	0.48556889541781656	0.049254902199782416	0.0508588784835148	0.5092610021980306	0.12614946140866332	0.01181283478715605	0.5251854155960824	0.1341956922863742	-0.0076125454398944924	0.5294869458479483	0.10420679636700542	-0.03463395344806301	0.5740330320080582
272	4.533333333333333	0.2378696845142017	0.4291241447140852	0.8417410269030002	0.2529206721062357	0.4678712424543576	1.3288883398134486	0.25434152527927173	0.551212472586123	1.8295461481545394	0.25925217531065503	0.35655874161315804	1.8168265949955986	0.31173749172800497	0.38453846714855694	1.8113612582173866	0.24270438932988453	0.6109526471850221	1.8930322134696536	0.023379461014959076	0.45383060271081055	0.8582176606865417	0.04770179617336343	0.4922671910704307	1.346333274244461	0.044881970729934814	0.5450665210994895	1.8269222664454985	0.09443926166335836	0.3331551050573975	1.7930928093188363	0.03672648755895372	0.36548782717996164	1.8018613038125073	0.03619539378245636	0.6238742096114064	1.9178387461077473	0.1076800986917219	0.5092643456981986	0.23027461308526515	0.0821258255598081	0.47809358585599315	-0.003906865988862403	0.0998915831624574	0.4129965244430162	0.11114247885490572	0.29171530145801444	0.4589403495067633	0.33252597681252805	0.3087500421243531	0.25761863966557536	0.48903993165559473	0.17329595717873514	0.06418802186330086	0.497714534226507	0.11551362253235889	0.010899751158742591	0.5038790543453209	0.10973245162922039	-0.016419343343049685	0.524344274791123	0.10149894279635745	-0.021671689670024225	0.5382983892131693	-0.05864702770958137	0.5012716271973632	0.34359534913896045	-0.0768860536442463	0.25951662527623487	0.48600686901434764	0.04937377345244107	0.05121247823232566	0.5096213511638863	0.12738012310715552	0.011268376593804271	0.5252908127275944	0.13419108360877677	-0.007533588402154426	0.531297696917487	0.10563326282744658	-0.033295407957563375	0.5743402327353017
273	4.55	0.23679087775443025	0.4290904925644854	0.8394843182322105	0.254031453564131	0.47099339368028886	1.329164609321379	0.2547915926762545	0.5525323157982468	1.8297495116067846	0.2592346527687771	0.3566373150538048	1.8166851035516949	0.31178556275422176	0.38450153061286635	1.811353986453958	0.24320851969736246	0.6127320615144147	1.8940687020053266	0.023413515958893162	0.454027209983819	0.8558501195105717	0.04806920709753092	0.4935180194585319	1.3463742930182432	0.044591598558614595	0.5471453823002153	1.828732674678881	0.09521636884571515	0.33644187917014823	1.79473564067767	0.034092337477366466	0.3697840160340948	1.8049339819018158	0.03569140359042549	0.6207747618564871	1.9162210796203956	0.10834176020068276	0.5121158336074414	0.23046144553232958	0.08218404208663958	0.4779835567436579	-0.0038964951201653454	0.09987885482355059	0.4130135101659186	0.11117209635655514	0.29172216469483736	0.45894963063794736	0.33254519853335035	0.3087077300383611	0.2576757591389302	0.4886989461393311	0.17327145112559555	0.06419439214754052	0.4976970740411341	0.11821208327036666	0.015549010370319777	0.5053496346390864	0.10959794271243352	-0.016086527725427992	0.5244688494123131	0.10138518648461438	-0.023410806317505868	0.537650668264659	-0.05866505277169592	0.5012805073674478	0.343583991727664	-0.07587783083850386	0.2599281775808941	0.4861883507944986	0.04976344528219686	0.052345758758591786	0.5104939342575894	0.12802280099046606	0.010256606822159602	0.5249081008159823	0.1341919312544823	-0.0074970326558412214	0.5320016316772896	0.10610256029435283	-0.03189698512504781	0.5746913608833707
